<svg width="1010" height="718" viewBox="0 0 1010 718" fill="none" xmlns="http://www.w3.org/2000/svg">
<path d="M744.6 178.37H275.83C271.732 178.37 268.41 181.692 268.41 185.79V275.3C268.41 279.398 271.732 282.72 275.83 282.72H744.6C748.698 282.72 752.02 279.398 752.02 275.3V185.79C752.02 181.692 748.698 178.37 744.6 178.37Z" fill="#35323E"/>
<path d="M309.34 52.15C309.34 52.15 316.21 238.98 304.03 260.85H715.77C715.77 260.85 698.28 117.14 715.77 52.15H309.34Z" fill="white"/>
<path opacity="0.03" d="M309.34 52.15C309.34 52.15 316.21 238.98 304.03 260.85H715.77C715.77 260.85 698.28 117.14 715.77 52.15H309.34Z" fill="black"/>
<path d="M653.3 252.89H351.51V290.38H653.3V252.89Z" fill="#35323E"/>
<path d="M787.67 694.19H228.31C224.115 694.19 219.968 693.306 216.138 691.594C212.309 689.882 208.883 687.382 206.086 684.256C203.288 681.13 201.182 677.45 199.904 673.454C198.626 669.459 198.206 665.239 198.67 661.07L210.11 557.98C210.863 551.127 211.407 544.257 211.74 537.37L213.89 467.47C214.383 451.677 215.45 435.923 217.09 420.21C217.943 412.063 218.943 403.933 220.09 395.82L234.8 293.34C236.673 280.512 243.098 268.785 252.902 260.303C262.707 251.82 275.236 247.148 288.2 247.14H310.54C321.877 247.18 332.896 250.888 341.95 257.71C365.09 274.98 430.83 287.44 508.33 287.44C585.83 287.44 651.58 274.98 674.77 257.67C683.824 250.848 694.843 247.14 706.18 247.1H742.37C749.977 247.1 757.341 249.781 763.167 254.671C768.994 259.561 772.911 266.348 774.23 273.84L793.98 385.84C795.98 397.227 797.677 408.66 799.07 420.14C801.39 439.227 802.847 458.397 803.44 477.65L805.44 542.6C805.859 556.145 807.03 569.656 808.95 583.07L819.56 657.38C820.22 661.952 819.888 666.613 818.588 671.045C817.288 675.478 815.05 679.579 812.025 683.071C809 686.562 805.26 689.362 801.057 691.281C796.855 693.199 792.289 694.191 787.67 694.19V694.19Z" fill="#464353"/>
<path opacity="0.1" d="M755.81 434.88H261.51C250.486 434.88 241.55 443.816 241.55 454.84V644.55C241.55 655.574 250.486 664.51 261.51 664.51H755.81C766.834 664.51 775.77 655.574 775.77 644.55V454.84C775.77 443.816 766.834 434.88 755.81 434.88Z" fill="black"/>
<path d="M275.91 474.55C284.365 474.55 291.22 468.815 291.22 461.74C291.22 454.665 284.365 448.93 275.91 448.93C267.455 448.93 260.6 454.665 260.6 461.74C260.6 468.815 267.455 474.55 275.91 474.55Z" fill="#00B0FF"/>
<path opacity="0.1" d="M275.91 474.55C284.365 474.55 291.22 468.815 291.22 461.74C291.22 454.665 284.365 448.93 275.91 448.93C267.455 448.93 260.6 454.665 260.6 461.74C260.6 468.815 267.455 474.55 275.91 474.55Z" fill="black"/>
<path d="M275.91 471.74C284.365 471.74 291.22 466.005 291.22 458.93C291.22 451.855 284.365 446.12 275.91 446.12C267.455 446.12 260.6 451.855 260.6 458.93C260.6 466.005 267.455 471.74 275.91 471.74Z" fill="#00B0FF"/>
<path d="M294.03 519.23C302.485 519.23 309.34 513.495 309.34 506.42C309.34 499.345 302.485 493.61 294.03 493.61C285.575 493.61 278.72 499.345 278.72 506.42C278.72 513.495 285.575 519.23 294.03 519.23Z" fill="#35323E"/>
<path opacity="0.1" d="M294.03 519.23C302.485 519.23 309.34 513.495 309.34 506.42C309.34 499.345 302.485 493.61 294.03 493.61C285.575 493.61 278.72 499.345 278.72 506.42C278.72 513.495 285.575 519.23 294.03 519.23Z" fill="black"/>
<path d="M294.03 516.42C302.485 516.42 309.34 510.685 309.34 503.61C309.34 496.535 302.485 490.8 294.03 490.8C285.575 490.8 278.72 496.535 278.72 503.61C278.72 510.685 285.575 516.42 294.03 516.42Z" fill="#35323E"/>
<path d="M304.03 563.91C312.485 563.91 319.34 558.175 319.34 551.1C319.34 544.025 312.485 538.29 304.03 538.29C295.575 538.29 288.72 544.025 288.72 551.1C288.72 558.175 295.575 563.91 304.03 563.91Z" fill="#35323E"/>
<path opacity="0.1" d="M304.03 563.91C312.485 563.91 319.34 558.175 319.34 551.1C319.34 544.025 312.485 538.29 304.03 538.29C295.575 538.29 288.72 544.025 288.72 551.1C288.72 558.175 295.575 563.91 304.03 563.91Z" fill="black"/>
<path d="M304.03 561.1C312.485 561.1 319.34 555.365 319.34 548.29C319.34 541.215 312.485 535.48 304.03 535.48C295.575 535.48 288.72 541.215 288.72 548.29C288.72 555.365 295.575 561.1 304.03 561.1Z" fill="#35323E"/>
<path d="M265.29 569.22C273.745 569.22 280.6 563.485 280.6 556.41C280.6 549.335 273.745 543.6 265.29 543.6C256.835 543.6 249.98 549.335 249.98 556.41C249.98 563.485 256.835 569.22 265.29 569.22Z" fill="#35323E"/>
<path opacity="0.1" d="M265.29 569.22C273.745 569.22 280.6 563.485 280.6 556.41C280.6 549.335 273.745 543.6 265.29 543.6C256.835 543.6 249.98 549.335 249.98 556.41C249.98 563.485 256.835 569.22 265.29 569.22Z" fill="black"/>
<path d="M265.29 566.41C273.745 566.41 280.6 560.675 280.6 553.6C280.6 546.525 273.745 540.79 265.29 540.79C256.835 540.79 249.98 546.525 249.98 553.6C249.98 560.675 256.835 566.41 265.29 566.41Z" fill="#35323E"/>
<path d="M322.77 608.58C331.225 608.58 338.08 602.845 338.08 595.77C338.08 588.695 331.225 582.96 322.77 582.96C314.315 582.96 307.46 588.695 307.46 595.77C307.46 602.845 314.315 608.58 322.77 608.58Z" fill="#35323E"/>
<path opacity="0.1" d="M322.77 608.58C331.225 608.58 338.08 602.845 338.08 595.77C338.08 588.695 331.225 582.96 322.77 582.96C314.315 582.96 307.46 588.695 307.46 595.77C307.46 602.845 314.315 608.58 322.77 608.58Z" fill="black"/>
<path d="M322.77 605.77C331.225 605.77 338.08 600.035 338.08 592.96C338.08 585.885 331.225 580.15 322.77 580.15C314.315 580.15 307.46 585.885 307.46 592.96C307.46 600.035 314.315 605.77 322.77 605.77Z" fill="#35323E"/>
<path d="M271.54 610.15C279.995 610.15 286.85 604.415 286.85 597.34C286.85 590.265 279.995 584.53 271.54 584.53C263.085 584.53 256.23 590.265 256.23 597.34C256.23 604.415 263.085 610.15 271.54 610.15Z" fill="#35323E"/>
<path opacity="0.1" d="M271.54 610.15C279.995 610.15 286.85 604.415 286.85 597.34C286.85 590.265 279.995 584.53 271.54 584.53C263.085 584.53 256.23 590.265 256.23 597.34C256.23 604.415 263.085 610.15 271.54 610.15Z" fill="black"/>
<path d="M271.54 607.33C279.995 607.33 286.85 601.595 286.85 594.52C286.85 587.445 279.995 581.71 271.54 581.71C263.085 581.71 256.23 587.445 256.23 594.52C256.23 601.595 263.085 607.33 271.54 607.33Z" fill="#35323E"/>
<path d="M364.95 608.58C373.405 608.58 380.26 602.845 380.26 595.77C380.26 588.695 373.405 582.96 364.95 582.96C356.495 582.96 349.64 588.695 349.64 595.77C349.64 602.845 356.495 608.58 364.95 608.58Z" fill="#35323E"/>
<path opacity="0.1" d="M364.95 608.58C373.405 608.58 380.26 602.845 380.26 595.77C380.26 588.695 373.405 582.96 364.95 582.96C356.495 582.96 349.64 588.695 349.64 595.77C349.64 602.845 356.495 608.58 364.95 608.58Z" fill="black"/>
<path d="M364.95 605.77C373.405 605.77 380.26 600.035 380.26 592.96C380.26 585.885 373.405 580.15 364.95 580.15C356.495 580.15 349.64 585.885 349.64 592.96C349.64 600.035 356.495 605.77 364.95 605.77Z" fill="#35323E"/>
<path d="M409.62 608.58C418.075 608.58 424.93 602.845 424.93 595.77C424.93 588.695 418.075 582.96 409.62 582.96C401.165 582.96 394.31 588.695 394.31 595.77C394.31 602.845 401.165 608.58 409.62 608.58Z" fill="#35323E"/>
<path opacity="0.1" d="M409.62 608.58C418.075 608.58 424.93 602.845 424.93 595.77C424.93 588.695 418.075 582.96 409.62 582.96C401.165 582.96 394.31 588.695 394.31 595.77C394.31 602.845 401.165 608.58 409.62 608.58Z" fill="black"/>
<path d="M409.62 605.77C418.075 605.77 424.93 600.035 424.93 592.96C424.93 585.885 418.075 580.15 409.62 580.15C401.165 580.15 394.31 585.885 394.31 592.96C394.31 600.035 401.165 605.77 409.62 605.77Z" fill="#35323E"/>
<path d="M450.86 608.58C459.315 608.58 466.17 602.845 466.17 595.77C466.17 588.695 459.315 582.96 450.86 582.96C442.405 582.96 435.55 588.695 435.55 595.77C435.55 602.845 442.405 608.58 450.86 608.58Z" fill="#35323E"/>
<path opacity="0.1" d="M450.86 608.58C459.315 608.58 466.17 602.845 466.17 595.77C466.17 588.695 459.315 582.96 450.86 582.96C442.405 582.96 435.55 588.695 435.55 595.77C435.55 602.845 442.405 608.58 450.86 608.58Z" fill="black"/>
<path d="M450.86 605.77C459.315 605.77 466.17 600.035 466.17 592.96C466.17 585.885 459.315 580.15 450.86 580.15C442.405 580.15 435.55 585.885 435.55 592.96C435.55 600.035 442.405 605.77 450.86 605.77Z" fill="#35323E"/>
<path d="M496.47 608.58C504.925 608.58 511.78 602.845 511.78 595.77C511.78 588.695 504.925 582.96 496.47 582.96C488.015 582.96 481.16 588.695 481.16 595.77C481.16 602.845 488.015 608.58 496.47 608.58Z" fill="#35323E"/>
<path opacity="0.1" d="M496.47 608.58C504.925 608.58 511.78 602.845 511.78 595.77C511.78 588.695 504.925 582.96 496.47 582.96C488.015 582.96 481.16 588.695 481.16 595.77C481.16 602.845 488.015 608.58 496.47 608.58Z" fill="black"/>
<path d="M496.47 605.77C504.925 605.77 511.78 600.035 511.78 592.96C511.78 585.885 504.925 580.15 496.47 580.15C488.015 580.15 481.16 585.885 481.16 592.96C481.16 600.035 488.015 605.77 496.47 605.77Z" fill="#35323E"/>
<path d="M537.71 608.58C546.166 608.58 553.02 602.845 553.02 595.77C553.02 588.695 546.166 582.96 537.71 582.96C529.255 582.96 522.4 588.695 522.4 595.77C522.4 602.845 529.255 608.58 537.71 608.58Z" fill="#35323E"/>
<path opacity="0.1" d="M537.71 608.58C546.166 608.58 553.02 602.845 553.02 595.77C553.02 588.695 546.166 582.96 537.71 582.96C529.255 582.96 522.4 588.695 522.4 595.77C522.4 602.845 529.255 608.58 537.71 608.58Z" fill="black"/>
<path d="M537.71 605.77C546.166 605.77 553.02 600.035 553.02 592.96C553.02 585.885 546.166 580.15 537.71 580.15C529.255 580.15 522.4 585.885 522.4 592.96C522.4 600.035 529.255 605.77 537.71 605.77Z" fill="#35323E"/>
<path d="M578.63 608.58C587.085 608.58 593.94 602.845 593.94 595.77C593.94 588.695 587.085 582.96 578.63 582.96C570.175 582.96 563.32 588.695 563.32 595.77C563.32 602.845 570.175 608.58 578.63 608.58Z" fill="#35323E"/>
<path opacity="0.1" d="M578.63 608.58C587.085 608.58 593.94 602.845 593.94 595.77C593.94 588.695 587.085 582.96 578.63 582.96C570.175 582.96 563.32 588.695 563.32 595.77C563.32 602.845 570.175 608.58 578.63 608.58Z" fill="black"/>
<path d="M578.63 605.77C587.085 605.77 593.94 600.035 593.94 592.96C593.94 585.885 587.085 580.15 578.63 580.15C570.175 580.15 563.32 585.885 563.32 592.96C563.32 600.035 570.175 605.77 578.63 605.77Z" fill="#35323E"/>
<path d="M623 608.58C631.455 608.58 638.31 602.845 638.31 595.77C638.31 588.695 631.455 582.96 623 582.96C614.545 582.96 607.69 588.695 607.69 595.77C607.69 602.845 614.545 608.58 623 608.58Z" fill="#35323E"/>
<path opacity="0.1" d="M623 608.58C631.455 608.58 638.31 602.845 638.31 595.77C638.31 588.695 631.455 582.96 623 582.96C614.545 582.96 607.69 588.695 607.69 595.77C607.69 602.845 614.545 608.58 623 608.58Z" fill="black"/>
<path d="M623 605.77C631.455 605.77 638.31 600.035 638.31 592.96C638.31 585.885 631.455 580.15 623 580.15C614.545 580.15 607.69 585.885 607.69 592.96C607.69 600.035 614.545 605.77 623 605.77Z" fill="#35323E"/>
<path d="M664.55 608.58C673.005 608.58 679.86 602.845 679.86 595.77C679.86 588.695 673.005 582.96 664.55 582.96C656.095 582.96 649.24 588.695 649.24 595.77C649.24 602.845 656.095 608.58 664.55 608.58Z" fill="#35323E"/>
<path opacity="0.1" d="M664.55 608.58C673.005 608.58 679.86 602.845 679.86 595.77C679.86 588.695 673.005 582.96 664.55 582.96C656.095 582.96 649.24 588.695 649.24 595.77C649.24 602.845 656.095 608.58 664.55 608.58Z" fill="black"/>
<path d="M664.55 605.77C673.005 605.77 679.86 600.035 679.86 592.96C679.86 585.885 673.005 580.15 664.55 580.15C656.095 580.15 649.24 585.885 649.24 592.96C649.24 600.035 656.095 605.77 664.55 605.77Z" fill="#35323E"/>
<path d="M710.47 608.58C718.925 608.58 725.78 602.845 725.78 595.77C725.78 588.695 718.925 582.96 710.47 582.96C702.014 582.96 695.16 588.695 695.16 595.77C695.16 602.845 702.014 608.58 710.47 608.58Z" fill="#35323E"/>
<path opacity="0.1" d="M710.47 608.58C718.925 608.58 725.78 602.845 725.78 595.77C725.78 588.695 718.925 582.96 710.47 582.96C702.014 582.96 695.16 588.695 695.16 595.77C695.16 602.845 702.014 608.58 710.47 608.58Z" fill="black"/>
<path d="M710.47 605.77C718.925 605.77 725.78 600.035 725.78 592.96C725.78 585.885 718.925 580.15 710.47 580.15C702.014 580.15 695.16 585.885 695.16 592.96C695.16 600.035 702.014 605.77 710.47 605.77Z" fill="#35323E"/>
<path d="M757.65 608.58C766.106 608.58 772.96 602.845 772.96 595.77C772.96 588.695 766.106 582.96 757.65 582.96C749.195 582.96 742.34 588.695 742.34 595.77C742.34 602.845 749.195 608.58 757.65 608.58Z" fill="#35323E"/>
<path opacity="0.1" d="M757.65 608.58C766.106 608.58 772.96 602.845 772.96 595.77C772.96 588.695 766.106 582.96 757.65 582.96C749.195 582.96 742.34 588.695 742.34 595.77C742.34 602.845 749.195 608.58 757.65 608.58Z" fill="black"/>
<path d="M757.65 605.77C766.106 605.77 772.96 600.035 772.96 592.96C772.96 585.885 766.106 580.15 757.65 580.15C749.195 580.15 742.34 585.885 742.34 592.96C742.34 600.035 749.195 605.77 757.65 605.77Z" fill="#35323E"/>
<path d="M346.52 563.91C354.975 563.91 361.83 558.175 361.83 551.1C361.83 544.025 354.975 538.29 346.52 538.29C338.065 538.29 331.21 544.025 331.21 551.1C331.21 558.175 338.065 563.91 346.52 563.91Z" fill="#35323E"/>
<path opacity="0.1" d="M346.52 563.91C354.975 563.91 361.83 558.175 361.83 551.1C361.83 544.025 354.975 538.29 346.52 538.29C338.065 538.29 331.21 544.025 331.21 551.1C331.21 558.175 338.065 563.91 346.52 563.91Z" fill="black"/>
<path d="M346.52 561.1C354.975 561.1 361.83 555.365 361.83 548.29C361.83 541.215 354.975 535.48 346.52 535.48C338.065 535.48 331.21 541.215 331.21 548.29C331.21 555.365 338.065 561.1 346.52 561.1Z" fill="#35323E"/>
<path d="M389 563.91C397.455 563.91 404.31 558.175 404.31 551.1C404.31 544.025 397.455 538.29 389 538.29C380.545 538.29 373.69 544.025 373.69 551.1C373.69 558.175 380.545 563.91 389 563.91Z" fill="#35323E"/>
<path opacity="0.1" d="M389 563.91C397.455 563.91 404.31 558.175 404.31 551.1C404.31 544.025 397.455 538.29 389 538.29C380.545 538.29 373.69 544.025 373.69 551.1C373.69 558.175 380.545 563.91 389 563.91Z" fill="black"/>
<path d="M389 561.1C397.455 561.1 404.31 555.365 404.31 548.29C404.31 541.215 397.455 535.48 389 535.48C380.545 535.48 373.69 541.215 373.69 548.29C373.69 555.365 380.545 561.1 389 561.1Z" fill="#35323E"/>
<path d="M432.74 563.91C441.195 563.91 448.05 558.175 448.05 551.1C448.05 544.025 441.195 538.29 432.74 538.29C424.285 538.29 417.43 544.025 417.43 551.1C417.43 558.175 424.285 563.91 432.74 563.91Z" fill="#35323E"/>
<path opacity="0.1" d="M432.74 563.91C441.195 563.91 448.05 558.175 448.05 551.1C448.05 544.025 441.195 538.29 432.74 538.29C424.285 538.29 417.43 544.025 417.43 551.1C417.43 558.175 424.285 563.91 432.74 563.91Z" fill="black"/>
<path d="M432.74 561.1C441.195 561.1 448.05 555.365 448.05 548.29C448.05 541.215 441.195 535.48 432.74 535.48C424.285 535.48 417.43 541.215 417.43 548.29C417.43 555.365 424.285 561.1 432.74 561.1Z" fill="#35323E"/>
<path d="M474.6 563.91C483.055 563.91 489.91 558.175 489.91 551.1C489.91 544.025 483.055 538.29 474.6 538.29C466.145 538.29 459.29 544.025 459.29 551.1C459.29 558.175 466.145 563.91 474.6 563.91Z" fill="#35323E"/>
<path opacity="0.1" d="M474.6 563.91C483.055 563.91 489.91 558.175 489.91 551.1C489.91 544.025 483.055 538.29 474.6 538.29C466.145 538.29 459.29 544.025 459.29 551.1C459.29 558.175 466.145 563.91 474.6 563.91Z" fill="black"/>
<path d="M474.6 561.1C483.055 561.1 489.91 555.365 489.91 548.29C489.91 541.215 483.055 535.48 474.6 535.48C466.145 535.48 459.29 541.215 459.29 548.29C459.29 555.365 466.145 561.1 474.6 561.1Z" fill="#35323E"/>
<path d="M517.4 563.91C525.856 563.91 532.71 558.175 532.71 551.1C532.71 544.025 525.856 538.29 517.4 538.29C508.945 538.29 502.09 544.025 502.09 551.1C502.09 558.175 508.945 563.91 517.4 563.91Z" fill="#35323E"/>
<path opacity="0.1" d="M517.4 563.91C525.856 563.91 532.71 558.175 532.71 551.1C532.71 544.025 525.856 538.29 517.4 538.29C508.945 538.29 502.09 544.025 502.09 551.1C502.09 558.175 508.945 563.91 517.4 563.91Z" fill="black"/>
<path d="M517.4 561.1C525.856 561.1 532.71 555.365 532.71 548.29C532.71 541.215 525.856 535.48 517.4 535.48C508.945 535.48 502.09 541.215 502.09 548.29C502.09 555.365 508.945 561.1 517.4 561.1Z" fill="#35323E"/>
<path d="M558.33 563.91C566.785 563.91 573.64 558.175 573.64 551.1C573.64 544.025 566.785 538.29 558.33 538.29C549.875 538.29 543.02 544.025 543.02 551.1C543.02 558.175 549.875 563.91 558.33 563.91Z" fill="#35323E"/>
<path opacity="0.1" d="M558.33 563.91C566.785 563.91 573.64 558.175 573.64 551.1C573.64 544.025 566.785 538.29 558.33 538.29C549.875 538.29 543.02 544.025 543.02 551.1C543.02 558.175 549.875 563.91 558.33 563.91Z" fill="black"/>
<path d="M558.33 561.1C566.785 561.1 573.64 555.365 573.64 548.29C573.64 541.215 566.785 535.48 558.33 535.48C549.875 535.48 543.02 541.215 543.02 548.29C543.02 555.365 549.875 561.1 558.33 561.1Z" fill="#35323E"/>
<path d="M602.69 563.91C611.145 563.91 618 558.175 618 551.1C618 544.025 611.145 538.29 602.69 538.29C594.235 538.29 587.38 544.025 587.38 551.1C587.38 558.175 594.235 563.91 602.69 563.91Z" fill="#35323E"/>
<path opacity="0.1" d="M602.69 563.91C611.145 563.91 618 558.175 618 551.1C618 544.025 611.145 538.29 602.69 538.29C594.235 538.29 587.38 544.025 587.38 551.1C587.38 558.175 594.235 563.91 602.69 563.91Z" fill="black"/>
<path d="M602.69 561.1C611.145 561.1 618 555.365 618 548.29C618 541.215 611.145 535.48 602.69 535.48C594.235 535.48 587.38 541.215 587.38 548.29C587.38 555.365 594.235 561.1 602.69 561.1Z" fill="#35323E"/>
<path d="M644.87 563.91C653.325 563.91 660.18 558.175 660.18 551.1C660.18 544.025 653.325 538.29 644.87 538.29C636.415 538.29 629.56 544.025 629.56 551.1C629.56 558.175 636.415 563.91 644.87 563.91Z" fill="#35323E"/>
<path opacity="0.1" d="M644.87 563.91C653.325 563.91 660.18 558.175 660.18 551.1C660.18 544.025 653.325 538.29 644.87 538.29C636.415 538.29 629.56 544.025 629.56 551.1C629.56 558.175 636.415 563.91 644.87 563.91Z" fill="black"/>
<path d="M644.87 561.1C653.325 561.1 660.18 555.365 660.18 548.29C660.18 541.215 653.325 535.48 644.87 535.48C636.415 535.48 629.56 541.215 629.56 548.29C629.56 555.365 636.415 561.1 644.87 561.1Z" fill="#35323E"/>
<path d="M687.98 563.91C696.435 563.91 703.29 558.175 703.29 551.1C703.29 544.025 696.435 538.29 687.98 538.29C679.525 538.29 672.67 544.025 672.67 551.1C672.67 558.175 679.525 563.91 687.98 563.91Z" fill="#35323E"/>
<path opacity="0.1" d="M687.98 563.91C696.435 563.91 703.29 558.175 703.29 551.1C703.29 544.025 696.435 538.29 687.98 538.29C679.525 538.29 672.67 544.025 672.67 551.1C672.67 558.175 679.525 563.91 687.98 563.91Z" fill="black"/>
<path d="M687.98 561.1C696.435 561.1 703.29 555.365 703.29 548.29C703.29 541.215 696.435 535.48 687.98 535.48C679.525 535.48 672.67 541.215 672.67 548.29C672.67 555.365 679.525 561.1 687.98 561.1Z" fill="#35323E"/>
<path d="M731.09 563.91C739.546 563.91 746.4 558.175 746.4 551.1C746.4 544.025 739.546 538.29 731.09 538.29C722.635 538.29 715.78 544.025 715.78 551.1C715.78 558.175 722.635 563.91 731.09 563.91Z" fill="#35323E"/>
<path opacity="0.1" d="M731.09 563.91C739.546 563.91 746.4 558.175 746.4 551.1C746.4 544.025 739.546 538.29 731.09 538.29C722.635 538.29 715.78 544.025 715.78 551.1C715.78 558.175 722.635 563.91 731.09 563.91Z" fill="black"/>
<path d="M731.09 561.1C739.546 561.1 746.4 555.365 746.4 548.29C746.4 541.215 739.546 535.48 731.09 535.48C722.635 535.48 715.78 541.215 715.78 548.29C715.78 555.365 722.635 561.1 731.09 561.1Z" fill="#35323E"/>
<path d="M337.14 519.23C345.595 519.23 352.45 513.495 352.45 506.42C352.45 499.345 345.595 493.61 337.14 493.61C328.685 493.61 321.83 499.345 321.83 506.42C321.83 513.495 328.685 519.23 337.14 519.23Z" fill="#35323E"/>
<path opacity="0.1" d="M337.14 519.23C345.595 519.23 352.45 513.495 352.45 506.42C352.45 499.345 345.595 493.61 337.14 493.61C328.685 493.61 321.83 499.345 321.83 506.42C321.83 513.495 328.685 519.23 337.14 519.23Z" fill="black"/>
<path d="M337.14 516.42C345.595 516.42 352.45 510.685 352.45 503.61C352.45 496.535 345.595 490.8 337.14 490.8C328.685 490.8 321.83 496.535 321.83 503.61C321.83 510.685 328.685 516.42 337.14 516.42Z" fill="#35323E"/>
<path d="M380.26 519.23C388.715 519.23 395.57 513.495 395.57 506.42C395.57 499.345 388.715 493.61 380.26 493.61C371.805 493.61 364.95 499.345 364.95 506.42C364.95 513.495 371.805 519.23 380.26 519.23Z" fill="#35323E"/>
<path opacity="0.1" d="M380.26 519.23C388.715 519.23 395.57 513.495 395.57 506.42C395.57 499.345 388.715 493.61 380.26 493.61C371.805 493.61 364.95 499.345 364.95 506.42C364.95 513.495 371.805 519.23 380.26 519.23Z" fill="black"/>
<path d="M380.26 516.42C388.715 516.42 395.57 510.685 395.57 503.61C395.57 496.535 388.715 490.8 380.26 490.8C371.805 490.8 364.95 496.535 364.95 503.61C364.95 510.685 371.805 516.42 380.26 516.42Z" fill="#35323E"/>
<path d="M421.81 519.23C430.265 519.23 437.12 513.495 437.12 506.42C437.12 499.345 430.265 493.61 421.81 493.61C413.355 493.61 406.5 499.345 406.5 506.42C406.5 513.495 413.355 519.23 421.81 519.23Z" fill="#35323E"/>
<path opacity="0.1" d="M421.81 519.23C430.265 519.23 437.12 513.495 437.12 506.42C437.12 499.345 430.265 493.61 421.81 493.61C413.355 493.61 406.5 499.345 406.5 506.42C406.5 513.495 413.355 519.23 421.81 519.23Z" fill="black"/>
<path d="M421.81 516.42C430.265 516.42 437.12 510.685 437.12 503.61C437.12 496.535 430.265 490.8 421.81 490.8C413.355 490.8 406.5 496.535 406.5 503.61C406.5 510.685 413.355 516.42 421.81 516.42Z" fill="#35323E"/>
<path d="M463.36 519.23C471.815 519.23 478.67 513.495 478.67 506.42C478.67 499.345 471.815 493.61 463.36 493.61C454.905 493.61 448.05 499.345 448.05 506.42C448.05 513.495 454.905 519.23 463.36 519.23Z" fill="#35323E"/>
<path opacity="0.1" d="M463.36 519.23C471.815 519.23 478.67 513.495 478.67 506.42C478.67 499.345 471.815 493.61 463.36 493.61C454.905 493.61 448.05 499.345 448.05 506.42C448.05 513.495 454.905 519.23 463.36 519.23Z" fill="black"/>
<path d="M463.36 516.42C471.815 516.42 478.67 510.685 478.67 503.61C478.67 496.535 471.815 490.8 463.36 490.8C454.905 490.8 448.05 496.535 448.05 503.61C448.05 510.685 454.905 516.42 463.36 516.42Z" fill="#35323E"/>
<path d="M505.22 519.23C513.675 519.23 520.53 513.495 520.53 506.42C520.53 499.345 513.675 493.61 505.22 493.61C496.765 493.61 489.91 499.345 489.91 506.42C489.91 513.495 496.765 519.23 505.22 519.23Z" fill="#35323E"/>
<path opacity="0.1" d="M505.22 519.23C513.675 519.23 520.53 513.495 520.53 506.42C520.53 499.345 513.675 493.61 505.22 493.61C496.765 493.61 489.91 499.345 489.91 506.42C489.91 513.495 496.765 519.23 505.22 519.23Z" fill="black"/>
<path d="M505.22 516.42C513.675 516.42 520.53 510.685 520.53 503.61C520.53 496.535 513.675 490.8 505.22 490.8C496.765 490.8 489.91 496.535 489.91 503.61C489.91 510.685 496.765 516.42 505.22 516.42Z" fill="#35323E"/>
<path d="M546.46 519.23C554.916 519.23 561.77 513.495 561.77 506.42C561.77 499.345 554.916 493.61 546.46 493.61C538.005 493.61 531.15 499.345 531.15 506.42C531.15 513.495 538.005 519.23 546.46 519.23Z" fill="#35323E"/>
<path opacity="0.1" d="M546.46 519.23C554.916 519.23 561.77 513.495 561.77 506.42C561.77 499.345 554.916 493.61 546.46 493.61C538.005 493.61 531.15 499.345 531.15 506.42C531.15 513.495 538.005 519.23 546.46 519.23Z" fill="black"/>
<path d="M546.46 516.42C554.916 516.42 561.77 510.685 561.77 503.61C561.77 496.535 554.916 490.8 546.46 490.8C538.005 490.8 531.15 496.535 531.15 503.61C531.15 510.685 538.005 516.42 546.46 516.42Z" fill="#35323E"/>
<path d="M590.19 519.23C598.645 519.23 605.5 513.495 605.5 506.42C605.5 499.345 598.645 493.61 590.19 493.61C581.735 493.61 574.88 499.345 574.88 506.42C574.88 513.495 581.735 519.23 590.19 519.23Z" fill="#35323E"/>
<path opacity="0.1" d="M590.19 519.23C598.645 519.23 605.5 513.495 605.5 506.42C605.5 499.345 598.645 493.61 590.19 493.61C581.735 493.61 574.88 499.345 574.88 506.42C574.88 513.495 581.735 519.23 590.19 519.23Z" fill="black"/>
<path d="M590.19 516.42C598.645 516.42 605.5 510.685 605.5 503.61C605.5 496.535 598.645 490.8 590.19 490.8C581.735 490.8 574.88 496.535 574.88 503.61C574.88 510.685 581.735 516.42 590.19 516.42Z" fill="#35323E"/>
<path d="M631.43 519.23C639.885 519.23 646.74 513.495 646.74 506.42C646.74 499.345 639.885 493.61 631.43 493.61C622.975 493.61 616.12 499.345 616.12 506.42C616.12 513.495 622.975 519.23 631.43 519.23Z" fill="#35323E"/>
<path opacity="0.1" d="M631.43 519.23C639.885 519.23 646.74 513.495 646.74 506.42C646.74 499.345 639.885 493.61 631.43 493.61C622.975 493.61 616.12 499.345 616.12 506.42C616.12 513.495 622.975 519.23 631.43 519.23Z" fill="black"/>
<path d="M631.43 516.42C639.885 516.42 646.74 510.685 646.74 503.61C646.74 496.535 639.885 490.8 631.43 490.8C622.975 490.8 616.12 496.535 616.12 503.61C616.12 510.685 622.975 516.42 631.43 516.42Z" fill="#35323E"/>
<path d="M675.48 519.23C683.935 519.23 690.79 513.495 690.79 506.42C690.79 499.345 683.935 493.61 675.48 493.61C667.025 493.61 660.17 499.345 660.17 506.42C660.17 513.495 667.025 519.23 675.48 519.23Z" fill="#35323E"/>
<path opacity="0.1" d="M675.48 519.23C683.935 519.23 690.79 513.495 690.79 506.42C690.79 499.345 683.935 493.61 675.48 493.61C667.025 493.61 660.17 499.345 660.17 506.42C660.17 513.495 667.025 519.23 675.48 519.23Z" fill="black"/>
<path d="M675.48 516.42C683.935 516.42 690.79 510.685 690.79 503.61C690.79 496.535 683.935 490.8 675.48 490.8C667.025 490.8 660.17 496.535 660.17 503.61C660.17 510.685 667.025 516.42 675.48 516.42Z" fill="#35323E"/>
<path d="M718.59 519.23C727.046 519.23 733.9 513.495 733.9 506.42C733.9 499.345 727.046 493.61 718.59 493.61C710.135 493.61 703.28 499.345 703.28 506.42C703.28 513.495 710.135 519.23 718.59 519.23Z" fill="#35323E"/>
<path opacity="0.1" d="M718.59 519.23C727.046 519.23 733.9 513.495 733.9 506.42C733.9 499.345 727.046 493.61 718.59 493.61C710.135 493.61 703.28 499.345 703.28 506.42C703.28 513.495 710.135 519.23 718.59 519.23Z" fill="black"/>
<path d="M718.59 516.42C727.046 516.42 733.9 510.685 733.9 503.61C733.9 496.535 727.046 490.8 718.59 490.8C710.135 490.8 703.28 496.535 703.28 503.61C703.28 510.685 710.135 516.42 718.59 516.42Z" fill="#35323E"/>
<path d="M315.9 474.55C324.355 474.55 331.21 468.815 331.21 461.74C331.21 454.665 324.355 448.93 315.9 448.93C307.445 448.93 300.59 454.665 300.59 461.74C300.59 468.815 307.445 474.55 315.9 474.55Z" fill="#35323E"/>
<path opacity="0.1" d="M315.9 474.55C324.355 474.55 331.21 468.815 331.21 461.74C331.21 454.665 324.355 448.93 315.9 448.93C307.445 448.93 300.59 454.665 300.59 461.74C300.59 468.815 307.445 474.55 315.9 474.55Z" fill="black"/>
<path d="M315.9 471.74C324.355 471.74 331.21 466.005 331.21 458.93C331.21 451.855 324.355 446.12 315.9 446.12C307.445 446.12 300.59 451.855 300.59 458.93C300.59 466.005 307.445 471.74 315.9 471.74Z" fill="#35323E"/>
<path d="M358.39 474.55C366.845 474.55 373.7 468.815 373.7 461.74C373.7 454.665 366.845 448.93 358.39 448.93C349.935 448.93 343.08 454.665 343.08 461.74C343.08 468.815 349.935 474.55 358.39 474.55Z" fill="#35323E"/>
<path opacity="0.1" d="M358.39 474.55C366.845 474.55 373.7 468.815 373.7 461.74C373.7 454.665 366.845 448.93 358.39 448.93C349.935 448.93 343.08 454.665 343.08 461.74C343.08 468.815 349.935 474.55 358.39 474.55Z" fill="black"/>
<path d="M358.39 471.74C366.845 471.74 373.7 466.005 373.7 458.93C373.7 451.855 366.845 446.12 358.39 446.12C349.935 446.12 343.08 451.855 343.08 458.93C343.08 466.005 349.935 471.74 358.39 471.74Z" fill="#35323E"/>
<path d="M399.31 474.55C407.765 474.55 414.62 468.815 414.62 461.74C414.62 454.665 407.765 448.93 399.31 448.93C390.855 448.93 384 454.665 384 461.74C384 468.815 390.855 474.55 399.31 474.55Z" fill="#35323E"/>
<path opacity="0.1" d="M399.31 474.55C407.765 474.55 414.62 468.815 414.62 461.74C414.62 454.665 407.765 448.93 399.31 448.93C390.855 448.93 384 454.665 384 461.74C384 468.815 390.855 474.55 399.31 474.55Z" fill="black"/>
<path d="M399.31 471.74C407.765 471.74 414.62 466.005 414.62 458.93C414.62 451.855 407.765 446.12 399.31 446.12C390.855 446.12 384 451.855 384 458.93C384 466.005 390.855 471.74 399.31 471.74Z" fill="#35323E"/>
<path d="M441.49 474.55C449.945 474.55 456.8 468.815 456.8 461.74C456.8 454.665 449.945 448.93 441.49 448.93C433.035 448.93 426.18 454.665 426.18 461.74C426.18 468.815 433.035 474.55 441.49 474.55Z" fill="#35323E"/>
<path opacity="0.1" d="M441.49 474.55C449.945 474.55 456.8 468.815 456.8 461.74C456.8 454.665 449.945 448.93 441.49 448.93C433.035 448.93 426.18 454.665 426.18 461.74C426.18 468.815 433.035 474.55 441.49 474.55Z" fill="black"/>
<path d="M441.49 471.74C449.945 471.74 456.8 466.005 456.8 458.93C456.8 451.855 449.945 446.12 441.49 446.12C433.035 446.12 426.18 451.855 426.18 458.93C426.18 466.005 433.035 471.74 441.49 471.74Z" fill="#35323E"/>
<path d="M483.04 474.55C491.495 474.55 498.35 468.815 498.35 461.74C498.35 454.665 491.495 448.93 483.04 448.93C474.585 448.93 467.73 454.665 467.73 461.74C467.73 468.815 474.585 474.55 483.04 474.55Z" fill="#35323E"/>
<path opacity="0.1" d="M483.04 474.55C491.495 474.55 498.35 468.815 498.35 461.74C498.35 454.665 491.495 448.93 483.04 448.93C474.585 448.93 467.73 454.665 467.73 461.74C467.73 468.815 474.585 474.55 483.04 474.55Z" fill="black"/>
<path d="M483.04 471.74C491.495 471.74 498.35 466.005 498.35 458.93C498.35 451.855 491.495 446.12 483.04 446.12C474.585 446.12 467.73 451.855 467.73 458.93C467.73 466.005 474.585 471.74 483.04 471.74Z" fill="#35323E"/>
<path d="M525.53 474.55C533.986 474.55 540.84 468.815 540.84 461.74C540.84 454.665 533.986 448.93 525.53 448.93C517.075 448.93 510.22 454.665 510.22 461.74C510.22 468.815 517.075 474.55 525.53 474.55Z" fill="#35323E"/>
<path opacity="0.1" d="M525.53 474.55C533.986 474.55 540.84 468.815 540.84 461.74C540.84 454.665 533.986 448.93 525.53 448.93C517.075 448.93 510.22 454.665 510.22 461.74C510.22 468.815 517.075 474.55 525.53 474.55Z" fill="black"/>
<path d="M525.53 471.74C533.986 471.74 540.84 466.005 540.84 458.93C540.84 451.855 533.986 446.12 525.53 446.12C517.075 446.12 510.22 451.855 510.22 458.93C510.22 466.005 517.075 471.74 525.53 471.74Z" fill="#35323E"/>
<path d="M567.08 474.55C575.535 474.55 582.39 468.815 582.39 461.74C582.39 454.665 575.535 448.93 567.08 448.93C558.625 448.93 551.77 454.665 551.77 461.74C551.77 468.815 558.625 474.55 567.08 474.55Z" fill="#35323E"/>
<path opacity="0.1" d="M567.08 474.55C575.535 474.55 582.39 468.815 582.39 461.74C582.39 454.665 575.535 448.93 567.08 448.93C558.625 448.93 551.77 454.665 551.77 461.74C551.77 468.815 558.625 474.55 567.08 474.55Z" fill="black"/>
<path d="M567.08 471.74C575.535 471.74 582.39 466.005 582.39 458.93C582.39 451.855 575.535 446.12 567.08 446.12C558.625 446.12 551.77 451.855 551.77 458.93C551.77 466.005 558.625 471.74 567.08 471.74Z" fill="#35323E"/>
<path d="M609.25 474.55C617.705 474.55 624.56 468.815 624.56 461.74C624.56 454.665 617.705 448.93 609.25 448.93C600.795 448.93 593.94 454.665 593.94 461.74C593.94 468.815 600.795 474.55 609.25 474.55Z" fill="#35323E"/>
<path opacity="0.1" d="M609.25 474.55C617.705 474.55 624.56 468.815 624.56 461.74C624.56 454.665 617.705 448.93 609.25 448.93C600.795 448.93 593.94 454.665 593.94 461.74C593.94 468.815 600.795 474.55 609.25 474.55Z" fill="black"/>
<path d="M609.25 471.74C617.705 471.74 624.56 466.005 624.56 458.93C624.56 451.855 617.705 446.12 609.25 446.12C600.795 446.12 593.94 451.855 593.94 458.93C593.94 466.005 600.795 471.74 609.25 471.74Z" fill="#35323E"/>
<path d="M652.68 474.55C661.135 474.55 667.99 468.815 667.99 461.74C667.99 454.665 661.135 448.93 652.68 448.93C644.225 448.93 637.37 454.665 637.37 461.74C637.37 468.815 644.225 474.55 652.68 474.55Z" fill="#35323E"/>
<path opacity="0.1" d="M652.68 474.55C661.135 474.55 667.99 468.815 667.99 461.74C667.99 454.665 661.135 448.93 652.68 448.93C644.225 448.93 637.37 454.665 637.37 461.74C637.37 468.815 644.225 474.55 652.68 474.55Z" fill="black"/>
<path d="M652.68 471.74C661.135 471.74 667.99 466.005 667.99 458.93C667.99 451.855 661.135 446.12 652.68 446.12C644.225 446.12 637.37 451.855 637.37 458.93C637.37 466.005 644.225 471.74 652.68 471.74Z" fill="#35323E"/>
<path d="M695.16 474.55C703.615 474.55 710.47 468.815 710.47 461.74C710.47 454.665 703.615 448.93 695.16 448.93C686.704 448.93 679.85 454.665 679.85 461.74C679.85 468.815 686.704 474.55 695.16 474.55Z" fill="#35323E"/>
<path opacity="0.1" d="M695.16 474.55C703.615 474.55 710.47 468.815 710.47 461.74C710.47 454.665 703.615 448.93 695.16 448.93C686.704 448.93 679.85 454.665 679.85 461.74C679.85 468.815 686.704 474.55 695.16 474.55Z" fill="black"/>
<path d="M695.16 471.74C703.615 471.74 710.47 466.005 710.47 458.93C710.47 451.855 703.615 446.12 695.16 446.12C686.704 446.12 679.85 451.855 679.85 458.93C679.85 466.005 686.704 471.74 695.16 471.74Z" fill="#35323E"/>
<path d="M736.71 474.55C745.166 474.55 752.02 468.815 752.02 461.74C752.02 454.665 745.166 448.93 736.71 448.93C728.255 448.93 721.4 454.665 721.4 461.74C721.4 468.815 728.255 474.55 736.71 474.55Z" fill="#00B0FF"/>
<path opacity="0.1" d="M736.71 474.55C745.166 474.55 752.02 468.815 752.02 461.74C752.02 454.665 745.166 448.93 736.71 448.93C728.255 448.93 721.4 454.665 721.4 461.74C721.4 468.815 728.255 474.55 736.71 474.55Z" fill="black"/>
<path d="M736.71 471.74C745.166 471.74 752.02 466.005 752.02 458.93C752.02 451.855 745.166 446.12 736.71 446.12C728.255 446.12 721.4 451.855 721.4 458.93C721.4 466.005 728.255 471.74 736.71 471.74Z" fill="#00B0FF"/>
<path d="M734.52 625.77H284.98C279.971 625.77 275.91 629.831 275.91 634.84V641.38C275.91 646.389 279.971 650.45 284.98 650.45H734.52C739.529 650.45 743.59 646.389 743.59 641.38V634.84C743.59 629.831 739.529 625.77 734.52 625.77Z" fill="#35323E"/>
<path opacity="0.1" d="M734.52 625.77H284.98C279.971 625.77 275.91 629.831 275.91 634.84V641.38C275.91 646.389 279.971 650.45 284.98 650.45H734.52C739.529 650.45 743.59 646.389 743.59 641.38V634.84C743.59 629.831 739.529 625.77 734.52 625.77Z" fill="black"/>
<path d="M734.52 623.89H284.98C279.971 623.89 275.91 627.951 275.91 632.96V639.5C275.91 644.509 279.971 648.57 284.98 648.57H734.52C739.529 648.57 743.59 644.509 743.59 639.5V632.96C743.59 627.951 739.529 623.89 734.52 623.89Z" fill="#35323E"/>
<path opacity="0.1" d="M679.86 331.46C679.86 357.86 596.3 386.13 502.09 386.13C407.88 386.13 338.09 355.67 338.09 329.27C338.09 302.87 407.9 290.53 502.09 290.53C596.28 290.53 679.86 305.06 679.86 331.46Z" fill="black"/>
<path d="M762.64 253.98C768.334 253.98 772.95 242.581 772.95 228.52C772.95 214.459 768.334 203.06 762.64 203.06C756.946 203.06 752.33 214.459 752.33 228.52C752.33 242.581 756.946 253.98 762.64 253.98Z" fill="#464353"/>
<path d="M257.79 253.98C263.484 253.98 268.1 242.581 268.1 228.52C268.1 214.459 263.484 203.06 257.79 203.06C252.096 203.06 247.48 214.459 247.48 228.52C247.48 242.581 252.096 253.98 257.79 253.98Z" fill="#464353"/>
<path opacity="0.1" d="M762.64 222.43H265.29V229.93H762.64V222.43Z" fill="black"/>
<path d="M762.64 221.18H265.29V228.68H762.64V221.18Z" fill="#464353"/>
<path d="M521.77 230.55C517.7 229.3 510.21 253.98 510.21 253.98H533.01C533.01 253.98 525.84 231.8 521.77 230.55ZM521.45 233.67C521.884 233.668 522.308 233.795 522.669 234.034C523.031 234.274 523.313 234.615 523.48 235.015C523.648 235.415 523.692 235.856 523.609 236.281C523.526 236.707 523.318 237.098 523.012 237.405C522.706 237.712 522.316 237.922 521.891 238.007C521.466 238.092 521.025 238.05 520.624 237.884C520.223 237.719 519.881 237.438 519.64 237.078C519.399 236.717 519.27 236.294 519.27 235.86C519.27 235.572 519.327 235.288 519.437 235.022C519.547 234.756 519.708 234.515 519.911 234.311C520.115 234.108 520.356 233.947 520.622 233.837C520.888 233.727 521.172 233.67 521.46 233.67H521.45ZM521.71 240.73C524.38 241.38 529.11 253.04 529.11 253.04H514.11C514.11 253.04 519.05 240.07 521.77 240.73H521.71Z" fill="#464353"/>
<path opacity="0.03" d="M799.07 420.17H217.07C217.923 412.023 218.923 403.893 220.07 395.78L234.78 293.3C236.653 280.472 243.078 268.745 252.882 260.262C262.687 251.78 275.216 247.108 288.18 247.1H310.52C321.857 247.14 332.876 250.848 341.93 257.67C365.07 274.94 430.81 287.4 508.31 287.4C585.81 287.4 651.58 274.98 674.77 257.67C683.824 250.848 694.843 247.14 706.18 247.1H742.37C749.977 247.1 757.341 249.781 763.167 254.671C768.994 259.561 772.911 266.348 774.23 273.84L793.98 385.84C795.98 397.267 797.677 408.71 799.07 420.17Z" fill="white"/>
<path opacity="0.1" d="M285.86 244.76C285.837 244.819 285.811 244.875 285.78 244.93C285.965 245.274 286.169 245.608 286.39 245.93L295.21 243.22C295.21 243.22 294.7 241.22 293.93 238.86C290.44 237.86 285.44 243.99 285.44 243.99L285.86 244.76Z" fill="black"/>
<path opacity="0.1" d="M285.3 251.33C285.3 251.33 292.65 253.91 295.97 253.51C298.48 253.21 298.59 252.04 298.42 249.64C297.594 250.328 296.634 250.836 295.601 251.134C294.569 251.432 293.485 251.512 292.42 251.37C289.874 251.041 287.399 250.301 285.09 249.18C285.092 249.902 285.162 250.622 285.3 251.33V251.33Z" fill="black"/>
<path opacity="0.1" d="M273.02 204.58C275.558 204.263 278.053 203.666 280.46 202.8C280.46 202.8 282.33 202.39 285.11 201.46C285.03 200.46 284.97 199.4 284.96 198.15C284.779 194.566 284.314 191.001 283.57 187.49L273.28 189.36L273.01 200.85C272.708 202.075 272.711 203.356 273.02 204.58V204.58Z" fill="black"/>
<path opacity="0.1" d="M276.42 131.11C276.42 131.11 295.29 158.34 296.42 159.34C297.55 160.34 277.41 130.77 276.42 131.11Z" fill="black"/>
<path opacity="0.1" d="M320.05 58.19L321.71 64.9L323.87 63.6C323.39 60.6 322.65 57.77 321.97 57.12L320.05 58.19Z" fill="black"/>
<path opacity="0.1" d="M320.03 57.1C320.199 57.0694 320.371 57.0694 320.54 57.1C322.13 57.59 324.2 71.35 322.54 72.61C321.721 73.232 320.764 73.6471 319.75 73.82H319.51L318.98 69.23C318.844 69.3039 318.714 69.3875 318.59 69.48V69.29C319.005 67.5309 319.017 65.7009 318.626 63.9364C318.235 62.172 317.45 60.5187 316.33 59.1L320.03 57.1Z" fill="black"/>
<path d="M319 69.3L319.53 73.89C320.777 73.8066 321.972 73.3618 322.97 72.61C324.61 71.35 322.54 57.61 320.97 57.1C319.71 56.71 317.5 58.28 316.62 58.95C317.79 60.3738 318.613 62.0495 319.026 63.8453C319.439 65.6411 319.43 67.5083 319 69.3V69.3Z" fill="#444053"/>
<path d="M308.93 52.16L310.5 93.51L355.98 52.16H308.93Z" fill="white"/>
<path opacity="0.03" d="M308.93 52.16L310.5 93.51L355.98 52.16H308.93Z" fill="black"/>
</svg>
