<svg width="591" height="452" viewBox="0 0 591 452" fill="none" xmlns="http://www.w3.org/2000/svg">
<g filter="url(#filter0_d)">
<path d="M587 0H5V444H587V0Z" fill="#3F3D56"/>
</g>
<g filter="url(#filter1_d)">
<path d="M279.531 60.314H140.829C140.607 60.3143 140.388 60.2818 140.183 60.2182C139.979 60.1547 139.793 60.0613 139.636 59.9435C139.479 59.8258 139.355 59.6858 139.27 59.5318C139.185 59.3778 139.142 59.2127 139.142 59.046C139.142 58.8792 139.185 58.7141 139.27 58.5601C139.355 58.4061 139.479 58.2662 139.636 58.1484C139.793 58.0306 139.979 57.9373 140.183 57.8737C140.388 57.8102 140.607 57.7776 140.829 57.778H279.531C279.977 57.7787 280.404 57.9126 280.719 58.1503C281.034 58.388 281.211 58.7101 281.211 59.046C281.211 59.3818 281.034 59.7039 280.719 59.9416C280.404 60.1794 279.977 60.3133 279.531 60.314Z" fill="#F2F2F2"/>
</g>
<g filter="url(#filter2_d)">
<path d="M431.363 78.2438H213.21C212.763 78.2438 212.335 78.1102 212.02 77.8724C211.704 77.6346 211.526 77.3121 211.526 76.9758C211.526 76.6395 211.704 76.317 212.02 76.0792C212.335 75.8414 212.763 75.7078 213.21 75.7078H431.363C431.584 75.7078 431.803 75.7406 432.008 75.8043C432.212 75.868 432.397 75.9614 432.554 76.0792C432.71 76.1969 432.834 76.3367 432.918 76.4905C433.003 76.6444 433.047 76.8093 433.047 76.9758C433.047 77.1423 433.003 77.3072 432.918 77.461C432.834 77.6148 432.71 77.7546 432.554 77.8724C432.397 77.9901 432.212 78.0835 432.008 78.1472C431.803 78.211 431.584 78.2438 431.363 78.2438Z" fill="#F2F2F2"/>
</g>
<g filter="url(#filter3_d)">
<path d="M280.204 96.1736H141.502C141.055 96.1736 140.627 96.04 140.312 95.8022C139.996 95.5644 139.819 95.2419 139.819 94.9056C139.819 94.5693 139.996 94.2468 140.312 94.009C140.627 93.7712 141.055 93.6376 141.502 93.6376H280.204C280.651 93.6376 281.079 93.7712 281.395 94.009C281.71 94.2468 281.888 94.5693 281.888 94.9056C281.888 95.2419 281.71 95.5644 281.395 95.8022C281.079 96.04 280.651 96.1736 280.204 96.1736Z" fill="#F2F2F2"/>
</g>
<g filter="url(#filter4_d)">
<path d="M431.363 96.4996H292.661C292.214 96.4996 291.786 96.366 291.47 96.1282C291.155 95.8904 290.977 95.5679 290.977 95.2316C290.977 94.8953 291.155 94.5727 291.47 94.3349C291.786 94.0972 292.214 93.9636 292.661 93.9636H431.363C431.81 93.9636 432.238 94.0972 432.554 94.3349C432.869 94.5727 433.047 94.8953 433.047 95.2316C433.047 95.5679 432.869 95.8904 432.554 96.1282C432.238 96.366 431.81 96.4996 431.363 96.4996Z" fill="#F2F2F2"/>
</g>
<g filter="url(#filter5_d)">
<path d="M280.541 114.103H141.839C141.392 114.103 140.964 113.97 140.648 113.732C140.333 113.494 140.155 113.172 140.155 112.835C140.155 112.499 140.333 112.177 140.648 111.939C140.964 111.701 141.392 111.567 141.839 111.567H280.541C280.988 111.567 281.416 111.701 281.731 111.939C282.047 112.177 282.224 112.499 282.224 112.835C282.224 113.172 282.047 113.494 281.731 113.732C281.416 113.97 280.988 114.103 280.541 114.103Z" fill="#F2F2F2"/>
</g>
<g filter="url(#filter6_d)">
<path d="M280.878 132.033H142.175C141.729 132.033 141.301 131.9 140.985 131.662C140.669 131.424 140.492 131.101 140.492 130.765C140.492 130.429 140.669 130.106 140.985 129.869C141.301 129.631 141.729 129.497 142.175 129.497H280.878C281.324 129.497 281.752 129.631 282.068 129.869C282.384 130.106 282.561 130.429 282.561 130.765C282.561 131.101 282.384 131.424 282.068 131.662C281.752 131.9 281.324 132.033 280.878 132.033Z" fill="#F2F2F2"/>
</g>
<g filter="url(#filter7_d)">
<path d="M343.833 60.64H304.107C303.661 60.64 303.232 60.5064 302.917 60.2686C302.601 60.0308 302.424 59.7082 302.424 59.372C302.424 59.0357 302.601 58.7131 302.917 58.4753C303.232 58.2375 303.661 58.104 304.107 58.104H343.833C344.279 58.104 344.707 58.2375 345.023 58.4753C345.338 58.7131 345.516 59.0357 345.516 59.372C345.516 59.7082 345.338 60.0308 345.023 60.2686C344.707 60.5064 344.279 60.64 343.833 60.64Z" fill="#F2F2F2"/>
</g>
<g filter="url(#filter8_d)">
<path d="M343.833 114.103H304.107C303.661 114.103 303.232 113.97 302.917 113.732C302.601 113.494 302.424 113.172 302.424 112.835C302.424 112.499 302.601 112.177 302.917 111.939C303.232 111.701 303.661 111.567 304.107 111.567H343.833C344.279 111.567 344.707 111.701 345.023 111.939C345.338 112.177 345.516 112.499 345.516 112.835C345.516 113.172 345.338 113.494 345.023 113.732C344.707 113.97 344.279 114.103 343.833 114.103Z" fill="#F2F2F2"/>
</g>
<g filter="url(#filter9_d)">
<path d="M343.833 131.707H304.107C303.886 131.708 303.666 131.675 303.462 131.611C303.257 131.548 303.071 131.454 302.915 131.337C302.758 131.219 302.634 131.079 302.549 130.925C302.464 130.771 302.42 130.606 302.42 130.439C302.42 130.272 302.464 130.107 302.549 129.953C302.634 129.799 302.758 129.659 302.915 129.542C303.071 129.424 303.257 129.33 303.462 129.267C303.666 129.203 303.886 129.171 304.107 129.171H343.833C344.054 129.171 344.273 129.203 344.478 129.267C344.682 129.33 344.868 129.424 345.025 129.542C345.182 129.659 345.306 129.799 345.391 129.953C345.476 130.107 345.519 130.272 345.519 130.439C345.519 130.606 345.476 130.771 345.391 130.925C345.306 131.079 345.182 131.219 345.025 131.337C344.868 131.454 344.682 131.548 344.478 131.611C344.273 131.675 344.054 131.708 343.833 131.707Z" fill="#F2F2F2"/>
</g>
<g filter="url(#filter10_d)">
<path d="M410.491 131.707H370.765C370.319 131.706 369.892 131.573 369.577 131.335C369.262 131.097 369.085 130.775 369.085 130.439C369.085 130.103 369.262 129.781 369.577 129.544C369.892 129.306 370.319 129.172 370.765 129.171H410.491C410.712 129.171 410.931 129.203 411.136 129.267C411.34 129.33 411.526 129.424 411.683 129.542C411.84 129.659 411.964 129.799 412.049 129.953C412.134 130.107 412.177 130.272 412.177 130.439C412.177 130.606 412.134 130.771 412.049 130.925C411.964 131.079 411.84 131.219 411.683 131.337C411.526 131.454 411.34 131.548 411.136 131.611C410.931 131.675 410.712 131.708 410.491 131.707Z" fill="#F2F2F2"/>
</g>
<g filter="url(#filter11_d)">
<path d="M180.217 78.2438H140.492C140.046 78.2438 139.617 78.1102 139.302 77.8724C138.986 77.6346 138.809 77.3121 138.809 76.9758C138.809 76.6395 138.986 76.317 139.302 76.0792C139.617 75.8414 140.046 75.7078 140.492 75.7078H180.217C180.664 75.7078 181.092 75.8414 181.408 76.0792C181.723 76.317 181.901 76.6395 181.901 76.9758C181.901 77.3121 181.723 77.6346 181.408 77.8724C181.092 78.1102 180.664 78.2438 180.217 78.2438Z" fill="#F2F2F2"/>
</g>
<g filter="url(#filter12_d)">
<path d="M279.699 325.095H140.997C140.551 325.095 140.122 324.923 139.807 324.618C139.491 324.312 139.314 323.897 139.314 323.465C139.314 323.033 139.491 322.618 139.807 322.312C140.122 322.007 140.551 321.835 140.997 321.835H279.699C280.146 321.835 280.574 322.007 280.89 322.312C281.205 322.618 281.383 323.033 281.383 323.465C281.383 323.897 281.205 324.312 280.89 324.618C280.574 324.923 280.146 325.095 279.699 325.095Z" fill="#F2F2F2"/>
</g>
<g filter="url(#filter13_d)">
<path d="M279.026 360.955H140.324C139.877 360.955 139.449 360.783 139.133 360.477C138.818 360.171 138.64 359.757 138.64 359.325C138.64 358.892 138.818 358.478 139.133 358.172C139.449 357.866 139.877 357.695 140.324 357.695H279.026C279.473 357.695 279.901 357.866 280.216 358.172C280.532 358.478 280.709 358.892 280.709 359.325C280.709 359.757 280.532 360.171 280.216 360.477C279.901 360.783 279.473 360.955 279.026 360.955Z" fill="#F2F2F2"/>
</g>
<g filter="url(#filter14_d)">
<path d="M279.363 378.884H140.66C140.439 378.885 140.22 378.843 140.015 378.761C139.81 378.679 139.624 378.559 139.468 378.408C139.311 378.257 139.187 378.077 139.102 377.879C139.017 377.681 138.973 377.469 138.973 377.254C138.973 377.04 139.017 376.828 139.102 376.63C139.187 376.432 139.311 376.252 139.468 376.101C139.624 375.949 139.81 375.829 140.015 375.747C140.22 375.666 140.439 375.624 140.66 375.624H279.363C279.584 375.624 279.803 375.666 280.008 375.747C280.213 375.829 280.399 375.949 280.555 376.101C280.712 376.252 280.836 376.432 280.921 376.63C281.006 376.828 281.05 377.04 281.05 377.254C281.05 377.469 281.006 377.681 280.921 377.879C280.836 378.077 280.712 378.257 280.555 378.408C280.399 378.559 280.213 378.679 280.008 378.761C279.803 378.843 279.584 378.885 279.363 378.884Z" fill="#F2F2F2"/>
</g>
<g filter="url(#filter15_d)">
<path d="M338.614 361.281H298.889C298.442 361.281 298.014 361.109 297.699 360.803C297.383 360.497 297.206 360.083 297.206 359.651C297.206 359.218 297.383 358.804 297.699 358.498C298.014 358.192 298.442 358.021 298.889 358.021H338.614C339.061 358.021 339.489 358.192 339.805 358.498C340.12 358.804 340.298 359.218 340.298 359.651C340.298 360.083 340.12 360.497 339.805 360.803C339.489 361.109 339.061 361.281 338.614 361.281Z" fill="#F2F2F2"/>
</g>
<g filter="url(#filter16_d)">
<path d="M338.614 378.884H298.889C298.442 378.884 298.014 378.713 297.699 378.407C297.383 378.101 297.206 377.687 297.206 377.254C297.206 376.822 297.383 376.407 297.699 376.102C298.014 375.796 298.442 375.624 298.889 375.624H338.614C339.061 375.624 339.489 375.796 339.805 376.102C340.12 376.407 340.298 376.822 340.298 377.254C340.298 377.687 340.12 378.101 339.805 378.407C339.489 378.713 339.061 378.884 338.614 378.884Z" fill="#F2F2F2"/>
</g>
<g filter="url(#filter17_d)">
<path d="M405.272 361.281H365.547C365.1 361.281 364.672 361.109 364.357 360.803C364.041 360.497 363.864 360.083 363.864 359.651C363.864 359.218 364.041 358.804 364.357 358.498C364.672 358.192 365.1 358.021 365.547 358.021H405.272C405.719 358.021 406.147 358.192 406.463 358.498C406.778 358.804 406.956 359.218 406.956 359.651C406.956 360.083 406.778 360.497 406.463 360.803C406.147 361.109 405.719 361.281 405.272 361.281Z" fill="#F2F2F2"/>
</g>
<g filter="url(#filter18_d)">
<path d="M431.532 343.025H213.378C212.932 343.025 212.504 342.853 212.188 342.547C211.872 342.242 211.695 341.827 211.695 341.395C211.695 340.962 211.872 340.548 212.188 340.242C212.504 339.936 212.932 339.765 213.378 339.765H431.532C431.978 339.765 432.406 339.936 432.722 340.242C433.038 340.548 433.215 340.962 433.215 341.395C433.215 341.827 433.038 342.242 432.722 342.547C432.406 342.853 431.978 343.025 431.532 343.025Z" fill="#F2F2F2"/>
</g>
<g filter="url(#filter19_d)">
<path d="M180.386 342.301H140.66C140.214 342.301 139.786 342.167 139.47 341.929C139.154 341.692 138.977 341.369 138.977 341.033C138.977 340.696 139.154 340.374 139.47 340.136C139.786 339.898 140.214 339.765 140.66 339.765H180.386C180.832 339.765 181.26 339.898 181.576 340.136C181.892 340.374 182.069 340.696 182.069 341.033C182.069 341.369 181.892 341.692 181.576 341.929C181.26 342.167 180.832 342.301 180.386 342.301Z" fill="#F2F2F2"/>
</g>
<g filter="url(#filter20_d)">
<path d="M431.532 397.14H213.378C213.157 397.141 212.938 397.099 212.733 397.017C212.528 396.935 212.342 396.815 212.186 396.664C212.029 396.513 211.905 396.333 211.82 396.135C211.735 395.937 211.691 395.725 211.691 395.51C211.691 395.296 211.735 395.084 211.82 394.886C211.905 394.688 212.029 394.508 212.186 394.356C212.342 394.205 212.528 394.085 212.733 394.003C212.938 393.922 213.157 393.88 213.378 393.88H431.532C431.978 393.88 432.406 394.052 432.722 394.358C433.038 394.663 433.215 395.078 433.215 395.51C433.215 395.942 433.038 396.357 432.722 396.663C432.406 396.968 431.978 397.14 431.532 397.14Z" fill="#F2F2F2"/>
</g>
<g filter="url(#filter21_d)">
<path d="M180.386 397.14H140.66C140.439 397.141 140.22 397.099 140.015 397.017C139.81 396.935 139.624 396.815 139.468 396.664C139.311 396.513 139.187 396.333 139.102 396.135C139.017 395.937 138.973 395.725 138.973 395.51C138.973 395.296 139.017 395.084 139.102 394.886C139.187 394.688 139.311 394.508 139.468 394.356C139.624 394.205 139.81 394.085 140.015 394.003C140.22 393.922 140.439 393.88 140.66 393.88H180.386C180.607 393.88 180.826 393.922 181.031 394.003C181.236 394.085 181.422 394.205 181.578 394.356C181.735 394.508 181.859 394.688 181.944 394.886C182.029 395.084 182.073 395.296 182.073 395.51C182.073 395.725 182.029 395.937 181.944 396.135C181.859 396.333 181.735 396.513 181.578 396.664C181.422 396.815 181.236 396.935 181.031 397.017C180.826 397.099 180.607 397.141 180.386 397.14Z" fill="#F2F2F2"/>
</g>
<g opacity="0.1" filter="url(#filter22_d)">
<path opacity="0.1" d="M567.044 24.3836H4.81079V26.5556H567.044V24.3836Z" fill="black"/>
</g>
<g filter="url(#filter23_d)">
<path d="M253.076 179.409L199.211 230.916L253.076 282.423L265.195 270.688L224.46 231.242L265.532 191.47L253.076 179.409Z" fill="#00B0FF"/>
</g>
<g filter="url(#filter24_d)">
<path d="M332.527 179.409L386.392 230.916L332.527 282.423L320.407 270.688L361.143 231.242L320.071 191.47L332.527 179.409Z" fill="#00B0FF"/>
</g>
<g filter="url(#filter25_d)">
<path d="M19.7638 20.0398C23.48 20.0398 26.4927 17.1225 26.4927 13.524C26.4927 9.92541 23.48 7.00819 19.7638 7.00819C16.0476 7.00819 13.0349 9.92541 13.0349 13.524C13.0349 17.1225 16.0476 20.0398 19.7638 20.0398Z" fill="#00B0FF"/>
</g>
<g filter="url(#filter26_d)">
<path d="M37.7074 20.0398C41.4237 20.0398 44.4363 17.1225 44.4363 13.524C44.4363 9.92541 41.4237 7.00819 37.7074 7.00819C33.9912 7.00819 30.9786 9.92541 30.9786 13.524C30.9786 17.1225 33.9912 20.0398 37.7074 20.0398Z" fill="#00B0FF"/>
</g>
<g filter="url(#filter27_d)">
<path d="M55.6511 20.0398C59.3673 20.0398 62.3799 17.1225 62.3799 13.524C62.3799 9.92541 59.3673 7.00819 55.6511 7.00819C51.9348 7.00819 48.9222 9.92541 48.9222 13.524C48.9222 17.1225 51.9348 20.0398 55.6511 20.0398Z" fill="#00B0FF"/>
</g>
<defs>
<filter id="filter0_d" x="1" y="0" width="590" height="452" filterUnits="userSpaceOnUse" color-interpolation-filters="sRGB">
<feFlood flood-opacity="0" result="BackgroundImageFix"/>
<feColorMatrix in="SourceAlpha" type="matrix" values="0 0 0 0 0 0 0 0 0 0 0 0 0 0 0 0 0 0 127 0"/>
<feOffset dy="4"/>
<feGaussianBlur stdDeviation="2"/>
<feColorMatrix type="matrix" values="0 0 0 0 0 0 0 0 0 0 0 0 0 0 0 0 0 0 0.25 0"/>
<feBlend mode="normal" in2="BackgroundImageFix" result="effect1_dropShadow"/>
<feBlend mode="normal" in="SourceGraphic" in2="effect1_dropShadow" result="shape"/>
</filter>
<filter id="filter1_d" x="135.142" y="57.778" width="150.069" height="10.536" filterUnits="userSpaceOnUse" color-interpolation-filters="sRGB">
<feFlood flood-opacity="0" result="BackgroundImageFix"/>
<feColorMatrix in="SourceAlpha" type="matrix" values="0 0 0 0 0 0 0 0 0 0 0 0 0 0 0 0 0 0 127 0"/>
<feOffset dy="4"/>
<feGaussianBlur stdDeviation="2"/>
<feColorMatrix type="matrix" values="0 0 0 0 0 0 0 0 0 0 0 0 0 0 0 0 0 0 0.25 0"/>
<feBlend mode="normal" in2="BackgroundImageFix" result="effect1_dropShadow"/>
<feBlend mode="normal" in="SourceGraphic" in2="effect1_dropShadow" result="shape"/>
</filter>
<filter id="filter2_d" x="207.526" y="75.7078" width="229.521" height="10.536" filterUnits="userSpaceOnUse" color-interpolation-filters="sRGB">
<feFlood flood-opacity="0" result="BackgroundImageFix"/>
<feColorMatrix in="SourceAlpha" type="matrix" values="0 0 0 0 0 0 0 0 0 0 0 0 0 0 0 0 0 0 127 0"/>
<feOffset dy="4"/>
<feGaussianBlur stdDeviation="2"/>
<feColorMatrix type="matrix" values="0 0 0 0 0 0 0 0 0 0 0 0 0 0 0 0 0 0 0.25 0"/>
<feBlend mode="normal" in2="BackgroundImageFix" result="effect1_dropShadow"/>
<feBlend mode="normal" in="SourceGraphic" in2="effect1_dropShadow" result="shape"/>
</filter>
<filter id="filter3_d" x="135.819" y="93.6376" width="150.069" height="10.536" filterUnits="userSpaceOnUse" color-interpolation-filters="sRGB">
<feFlood flood-opacity="0" result="BackgroundImageFix"/>
<feColorMatrix in="SourceAlpha" type="matrix" values="0 0 0 0 0 0 0 0 0 0 0 0 0 0 0 0 0 0 127 0"/>
<feOffset dy="4"/>
<feGaussianBlur stdDeviation="2"/>
<feColorMatrix type="matrix" values="0 0 0 0 0 0 0 0 0 0 0 0 0 0 0 0 0 0 0.25 0"/>
<feBlend mode="normal" in2="BackgroundImageFix" result="effect1_dropShadow"/>
<feBlend mode="normal" in="SourceGraphic" in2="effect1_dropShadow" result="shape"/>
</filter>
<filter id="filter4_d" x="286.977" y="93.9636" width="150.07" height="10.536" filterUnits="userSpaceOnUse" color-interpolation-filters="sRGB">
<feFlood flood-opacity="0" result="BackgroundImageFix"/>
<feColorMatrix in="SourceAlpha" type="matrix" values="0 0 0 0 0 0 0 0 0 0 0 0 0 0 0 0 0 0 127 0"/>
<feOffset dy="4"/>
<feGaussianBlur stdDeviation="2"/>
<feColorMatrix type="matrix" values="0 0 0 0 0 0 0 0 0 0 0 0 0 0 0 0 0 0 0.25 0"/>
<feBlend mode="normal" in2="BackgroundImageFix" result="effect1_dropShadow"/>
<feBlend mode="normal" in="SourceGraphic" in2="effect1_dropShadow" result="shape"/>
</filter>
<filter id="filter5_d" x="136.155" y="111.567" width="150.069" height="10.536" filterUnits="userSpaceOnUse" color-interpolation-filters="sRGB">
<feFlood flood-opacity="0" result="BackgroundImageFix"/>
<feColorMatrix in="SourceAlpha" type="matrix" values="0 0 0 0 0 0 0 0 0 0 0 0 0 0 0 0 0 0 127 0"/>
<feOffset dy="4"/>
<feGaussianBlur stdDeviation="2"/>
<feColorMatrix type="matrix" values="0 0 0 0 0 0 0 0 0 0 0 0 0 0 0 0 0 0 0.25 0"/>
<feBlend mode="normal" in2="BackgroundImageFix" result="effect1_dropShadow"/>
<feBlend mode="normal" in="SourceGraphic" in2="effect1_dropShadow" result="shape"/>
</filter>
<filter id="filter6_d" x="136.492" y="129.497" width="150.069" height="10.536" filterUnits="userSpaceOnUse" color-interpolation-filters="sRGB">
<feFlood flood-opacity="0" result="BackgroundImageFix"/>
<feColorMatrix in="SourceAlpha" type="matrix" values="0 0 0 0 0 0 0 0 0 0 0 0 0 0 0 0 0 0 127 0"/>
<feOffset dy="4"/>
<feGaussianBlur stdDeviation="2"/>
<feColorMatrix type="matrix" values="0 0 0 0 0 0 0 0 0 0 0 0 0 0 0 0 0 0 0.25 0"/>
<feBlend mode="normal" in2="BackgroundImageFix" result="effect1_dropShadow"/>
<feBlend mode="normal" in="SourceGraphic" in2="effect1_dropShadow" result="shape"/>
</filter>
<filter id="filter7_d" x="298.424" y="58.104" width="51.092" height="10.536" filterUnits="userSpaceOnUse" color-interpolation-filters="sRGB">
<feFlood flood-opacity="0" result="BackgroundImageFix"/>
<feColorMatrix in="SourceAlpha" type="matrix" values="0 0 0 0 0 0 0 0 0 0 0 0 0 0 0 0 0 0 127 0"/>
<feOffset dy="4"/>
<feGaussianBlur stdDeviation="2"/>
<feColorMatrix type="matrix" values="0 0 0 0 0 0 0 0 0 0 0 0 0 0 0 0 0 0 0.25 0"/>
<feBlend mode="normal" in2="BackgroundImageFix" result="effect1_dropShadow"/>
<feBlend mode="normal" in="SourceGraphic" in2="effect1_dropShadow" result="shape"/>
</filter>
<filter id="filter8_d" x="298.424" y="111.567" width="51.092" height="10.536" filterUnits="userSpaceOnUse" color-interpolation-filters="sRGB">
<feFlood flood-opacity="0" result="BackgroundImageFix"/>
<feColorMatrix in="SourceAlpha" type="matrix" values="0 0 0 0 0 0 0 0 0 0 0 0 0 0 0 0 0 0 127 0"/>
<feOffset dy="4"/>
<feGaussianBlur stdDeviation="2"/>
<feColorMatrix type="matrix" values="0 0 0 0 0 0 0 0 0 0 0 0 0 0 0 0 0 0 0.25 0"/>
<feBlend mode="normal" in2="BackgroundImageFix" result="effect1_dropShadow"/>
<feBlend mode="normal" in="SourceGraphic" in2="effect1_dropShadow" result="shape"/>
</filter>
<filter id="filter9_d" x="298.42" y="129.171" width="51.099" height="10.536" filterUnits="userSpaceOnUse" color-interpolation-filters="sRGB">
<feFlood flood-opacity="0" result="BackgroundImageFix"/>
<feColorMatrix in="SourceAlpha" type="matrix" values="0 0 0 0 0 0 0 0 0 0 0 0 0 0 0 0 0 0 127 0"/>
<feOffset dy="4"/>
<feGaussianBlur stdDeviation="2"/>
<feColorMatrix type="matrix" values="0 0 0 0 0 0 0 0 0 0 0 0 0 0 0 0 0 0 0.25 0"/>
<feBlend mode="normal" in2="BackgroundImageFix" result="effect1_dropShadow"/>
<feBlend mode="normal" in="SourceGraphic" in2="effect1_dropShadow" result="shape"/>
</filter>
<filter id="filter10_d" x="365.085" y="129.171" width="51.092" height="10.536" filterUnits="userSpaceOnUse" color-interpolation-filters="sRGB">
<feFlood flood-opacity="0" result="BackgroundImageFix"/>
<feColorMatrix in="SourceAlpha" type="matrix" values="0 0 0 0 0 0 0 0 0 0 0 0 0 0 0 0 0 0 127 0"/>
<feOffset dy="4"/>
<feGaussianBlur stdDeviation="2"/>
<feColorMatrix type="matrix" values="0 0 0 0 0 0 0 0 0 0 0 0 0 0 0 0 0 0 0.25 0"/>
<feBlend mode="normal" in2="BackgroundImageFix" result="effect1_dropShadow"/>
<feBlend mode="normal" in="SourceGraphic" in2="effect1_dropShadow" result="shape"/>
</filter>
<filter id="filter11_d" x="134.809" y="75.7078" width="51.092" height="10.536" filterUnits="userSpaceOnUse" color-interpolation-filters="sRGB">
<feFlood flood-opacity="0" result="BackgroundImageFix"/>
<feColorMatrix in="SourceAlpha" type="matrix" values="0 0 0 0 0 0 0 0 0 0 0 0 0 0 0 0 0 0 127 0"/>
<feOffset dy="4"/>
<feGaussianBlur stdDeviation="2"/>
<feColorMatrix type="matrix" values="0 0 0 0 0 0 0 0 0 0 0 0 0 0 0 0 0 0 0.25 0"/>
<feBlend mode="normal" in2="BackgroundImageFix" result="effect1_dropShadow"/>
<feBlend mode="normal" in="SourceGraphic" in2="effect1_dropShadow" result="shape"/>
</filter>
<filter id="filter12_d" x="135.314" y="321.835" width="150.069" height="11.26" filterUnits="userSpaceOnUse" color-interpolation-filters="sRGB">
<feFlood flood-opacity="0" result="BackgroundImageFix"/>
<feColorMatrix in="SourceAlpha" type="matrix" values="0 0 0 0 0 0 0 0 0 0 0 0 0 0 0 0 0 0 127 0"/>
<feOffset dy="4"/>
<feGaussianBlur stdDeviation="2"/>
<feColorMatrix type="matrix" values="0 0 0 0 0 0 0 0 0 0 0 0 0 0 0 0 0 0 0.25 0"/>
<feBlend mode="normal" in2="BackgroundImageFix" result="effect1_dropShadow"/>
<feBlend mode="normal" in="SourceGraphic" in2="effect1_dropShadow" result="shape"/>
</filter>
<filter id="filter13_d" x="134.64" y="357.695" width="150.069" height="11.26" filterUnits="userSpaceOnUse" color-interpolation-filters="sRGB">
<feFlood flood-opacity="0" result="BackgroundImageFix"/>
<feColorMatrix in="SourceAlpha" type="matrix" values="0 0 0 0 0 0 0 0 0 0 0 0 0 0 0 0 0 0 127 0"/>
<feOffset dy="4"/>
<feGaussianBlur stdDeviation="2"/>
<feColorMatrix type="matrix" values="0 0 0 0 0 0 0 0 0 0 0 0 0 0 0 0 0 0 0.25 0"/>
<feBlend mode="normal" in2="BackgroundImageFix" result="effect1_dropShadow"/>
<feBlend mode="normal" in="SourceGraphic" in2="effect1_dropShadow" result="shape"/>
</filter>
<filter id="filter14_d" x="134.973" y="375.624" width="150.077" height="11.26" filterUnits="userSpaceOnUse" color-interpolation-filters="sRGB">
<feFlood flood-opacity="0" result="BackgroundImageFix"/>
<feColorMatrix in="SourceAlpha" type="matrix" values="0 0 0 0 0 0 0 0 0 0 0 0 0 0 0 0 0 0 127 0"/>
<feOffset dy="4"/>
<feGaussianBlur stdDeviation="2"/>
<feColorMatrix type="matrix" values="0 0 0 0 0 0 0 0 0 0 0 0 0 0 0 0 0 0 0.25 0"/>
<feBlend mode="normal" in2="BackgroundImageFix" result="effect1_dropShadow"/>
<feBlend mode="normal" in="SourceGraphic" in2="effect1_dropShadow" result="shape"/>
</filter>
<filter id="filter15_d" x="293.206" y="358.021" width="51.092" height="11.26" filterUnits="userSpaceOnUse" color-interpolation-filters="sRGB">
<feFlood flood-opacity="0" result="BackgroundImageFix"/>
<feColorMatrix in="SourceAlpha" type="matrix" values="0 0 0 0 0 0 0 0 0 0 0 0 0 0 0 0 0 0 127 0"/>
<feOffset dy="4"/>
<feGaussianBlur stdDeviation="2"/>
<feColorMatrix type="matrix" values="0 0 0 0 0 0 0 0 0 0 0 0 0 0 0 0 0 0 0.25 0"/>
<feBlend mode="normal" in2="BackgroundImageFix" result="effect1_dropShadow"/>
<feBlend mode="normal" in="SourceGraphic" in2="effect1_dropShadow" result="shape"/>
</filter>
<filter id="filter16_d" x="293.206" y="375.624" width="51.092" height="11.26" filterUnits="userSpaceOnUse" color-interpolation-filters="sRGB">
<feFlood flood-opacity="0" result="BackgroundImageFix"/>
<feColorMatrix in="SourceAlpha" type="matrix" values="0 0 0 0 0 0 0 0 0 0 0 0 0 0 0 0 0 0 127 0"/>
<feOffset dy="4"/>
<feGaussianBlur stdDeviation="2"/>
<feColorMatrix type="matrix" values="0 0 0 0 0 0 0 0 0 0 0 0 0 0 0 0 0 0 0.25 0"/>
<feBlend mode="normal" in2="BackgroundImageFix" result="effect1_dropShadow"/>
<feBlend mode="normal" in="SourceGraphic" in2="effect1_dropShadow" result="shape"/>
</filter>
<filter id="filter17_d" x="359.864" y="358.021" width="51.092" height="11.26" filterUnits="userSpaceOnUse" color-interpolation-filters="sRGB">
<feFlood flood-opacity="0" result="BackgroundImageFix"/>
<feColorMatrix in="SourceAlpha" type="matrix" values="0 0 0 0 0 0 0 0 0 0 0 0 0 0 0 0 0 0 127 0"/>
<feOffset dy="4"/>
<feGaussianBlur stdDeviation="2"/>
<feColorMatrix type="matrix" values="0 0 0 0 0 0 0 0 0 0 0 0 0 0 0 0 0 0 0.25 0"/>
<feBlend mode="normal" in2="BackgroundImageFix" result="effect1_dropShadow"/>
<feBlend mode="normal" in="SourceGraphic" in2="effect1_dropShadow" result="shape"/>
</filter>
<filter id="filter18_d" x="207.695" y="339.765" width="229.52" height="11.26" filterUnits="userSpaceOnUse" color-interpolation-filters="sRGB">
<feFlood flood-opacity="0" result="BackgroundImageFix"/>
<feColorMatrix in="SourceAlpha" type="matrix" values="0 0 0 0 0 0 0 0 0 0 0 0 0 0 0 0 0 0 127 0"/>
<feOffset dy="4"/>
<feGaussianBlur stdDeviation="2"/>
<feColorMatrix type="matrix" values="0 0 0 0 0 0 0 0 0 0 0 0 0 0 0 0 0 0 0.25 0"/>
<feBlend mode="normal" in2="BackgroundImageFix" result="effect1_dropShadow"/>
<feBlend mode="normal" in="SourceGraphic" in2="effect1_dropShadow" result="shape"/>
</filter>
<filter id="filter19_d" x="134.977" y="339.765" width="51.092" height="10.536" filterUnits="userSpaceOnUse" color-interpolation-filters="sRGB">
<feFlood flood-opacity="0" result="BackgroundImageFix"/>
<feColorMatrix in="SourceAlpha" type="matrix" values="0 0 0 0 0 0 0 0 0 0 0 0 0 0 0 0 0 0 127 0"/>
<feOffset dy="4"/>
<feGaussianBlur stdDeviation="2"/>
<feColorMatrix type="matrix" values="0 0 0 0 0 0 0 0 0 0 0 0 0 0 0 0 0 0 0.25 0"/>
<feBlend mode="normal" in2="BackgroundImageFix" result="effect1_dropShadow"/>
<feBlend mode="normal" in="SourceGraphic" in2="effect1_dropShadow" result="shape"/>
</filter>
<filter id="filter20_d" x="207.691" y="393.88" width="229.524" height="11.26" filterUnits="userSpaceOnUse" color-interpolation-filters="sRGB">
<feFlood flood-opacity="0" result="BackgroundImageFix"/>
<feColorMatrix in="SourceAlpha" type="matrix" values="0 0 0 0 0 0 0 0 0 0 0 0 0 0 0 0 0 0 127 0"/>
<feOffset dy="4"/>
<feGaussianBlur stdDeviation="2"/>
<feColorMatrix type="matrix" values="0 0 0 0 0 0 0 0 0 0 0 0 0 0 0 0 0 0 0.25 0"/>
<feBlend mode="normal" in2="BackgroundImageFix" result="effect1_dropShadow"/>
<feBlend mode="normal" in="SourceGraphic" in2="effect1_dropShadow" result="shape"/>
</filter>
<filter id="filter21_d" x="134.973" y="393.88" width="51.1" height="11.26" filterUnits="userSpaceOnUse" color-interpolation-filters="sRGB">
<feFlood flood-opacity="0" result="BackgroundImageFix"/>
<feColorMatrix in="SourceAlpha" type="matrix" values="0 0 0 0 0 0 0 0 0 0 0 0 0 0 0 0 0 0 127 0"/>
<feOffset dy="4"/>
<feGaussianBlur stdDeviation="2"/>
<feColorMatrix type="matrix" values="0 0 0 0 0 0 0 0 0 0 0 0 0 0 0 0 0 0 0.25 0"/>
<feBlend mode="normal" in2="BackgroundImageFix" result="effect1_dropShadow"/>
<feBlend mode="normal" in="SourceGraphic" in2="effect1_dropShadow" result="shape"/>
</filter>
<filter id="filter22_d" x="0.810791" y="24.3836" width="570.233" height="10.172" filterUnits="userSpaceOnUse" color-interpolation-filters="sRGB">
<feFlood flood-opacity="0" result="BackgroundImageFix"/>
<feColorMatrix in="SourceAlpha" type="matrix" values="0 0 0 0 0 0 0 0 0 0 0 0 0 0 0 0 0 0 127 0"/>
<feOffset dy="4"/>
<feGaussianBlur stdDeviation="2"/>
<feColorMatrix type="matrix" values="0 0 0 0 0 0 0 0 0 0 0 0 0 0 0 0 0 0 0.25 0"/>
<feBlend mode="normal" in2="BackgroundImageFix" result="effect1_dropShadow"/>
<feBlend mode="normal" in="SourceGraphic" in2="effect1_dropShadow" result="shape"/>
</filter>
<filter id="filter23_d" x="195.211" y="179.409" width="74.321" height="111.014" filterUnits="userSpaceOnUse" color-interpolation-filters="sRGB">
<feFlood flood-opacity="0" result="BackgroundImageFix"/>
<feColorMatrix in="SourceAlpha" type="matrix" values="0 0 0 0 0 0 0 0 0 0 0 0 0 0 0 0 0 0 127 0"/>
<feOffset dy="4"/>
<feGaussianBlur stdDeviation="2"/>
<feColorMatrix type="matrix" values="0 0 0 0 0 0 0 0 0 0 0 0 0 0 0 0 0 0 0.25 0"/>
<feBlend mode="normal" in2="BackgroundImageFix" result="effect1_dropShadow"/>
<feBlend mode="normal" in="SourceGraphic" in2="effect1_dropShadow" result="shape"/>
</filter>
<filter id="filter24_d" x="316.071" y="179.409" width="74.321" height="111.014" filterUnits="userSpaceOnUse" color-interpolation-filters="sRGB">
<feFlood flood-opacity="0" result="BackgroundImageFix"/>
<feColorMatrix in="SourceAlpha" type="matrix" values="0 0 0 0 0 0 0 0 0 0 0 0 0 0 0 0 0 0 127 0"/>
<feOffset dy="4"/>
<feGaussianBlur stdDeviation="2"/>
<feColorMatrix type="matrix" values="0 0 0 0 0 0 0 0 0 0 0 0 0 0 0 0 0 0 0.25 0"/>
<feBlend mode="normal" in2="BackgroundImageFix" result="effect1_dropShadow"/>
<feBlend mode="normal" in="SourceGraphic" in2="effect1_dropShadow" result="shape"/>
</filter>
<filter id="filter25_d" x="9.03491" y="7.00819" width="21.4578" height="21.0316" filterUnits="userSpaceOnUse" color-interpolation-filters="sRGB">
<feFlood flood-opacity="0" result="BackgroundImageFix"/>
<feColorMatrix in="SourceAlpha" type="matrix" values="0 0 0 0 0 0 0 0 0 0 0 0 0 0 0 0 0 0 127 0"/>
<feOffset dy="4"/>
<feGaussianBlur stdDeviation="2"/>
<feColorMatrix type="matrix" values="0 0 0 0 0 0 0 0 0 0 0 0 0 0 0 0 0 0 0.25 0"/>
<feBlend mode="normal" in2="BackgroundImageFix" result="effect1_dropShadow"/>
<feBlend mode="normal" in="SourceGraphic" in2="effect1_dropShadow" result="shape"/>
</filter>
<filter id="filter26_d" x="26.9786" y="7.00819" width="21.4577" height="21.0316" filterUnits="userSpaceOnUse" color-interpolation-filters="sRGB">
<feFlood flood-opacity="0" result="BackgroundImageFix"/>
<feColorMatrix in="SourceAlpha" type="matrix" values="0 0 0 0 0 0 0 0 0 0 0 0 0 0 0 0 0 0 127 0"/>
<feOffset dy="4"/>
<feGaussianBlur stdDeviation="2"/>
<feColorMatrix type="matrix" values="0 0 0 0 0 0 0 0 0 0 0 0 0 0 0 0 0 0 0.25 0"/>
<feBlend mode="normal" in2="BackgroundImageFix" result="effect1_dropShadow"/>
<feBlend mode="normal" in="SourceGraphic" in2="effect1_dropShadow" result="shape"/>
</filter>
<filter id="filter27_d" x="44.9222" y="7.00819" width="21.4577" height="21.0316" filterUnits="userSpaceOnUse" color-interpolation-filters="sRGB">
<feFlood flood-opacity="0" result="BackgroundImageFix"/>
<feColorMatrix in="SourceAlpha" type="matrix" values="0 0 0 0 0 0 0 0 0 0 0 0 0 0 0 0 0 0 127 0"/>
<feOffset dy="4"/>
<feGaussianBlur stdDeviation="2"/>
<feColorMatrix type="matrix" values="0 0 0 0 0 0 0 0 0 0 0 0 0 0 0 0 0 0 0.25 0"/>
<feBlend mode="normal" in2="BackgroundImageFix" result="effect1_dropShadow"/>
<feBlend mode="normal" in="SourceGraphic" in2="effect1_dropShadow" result="shape"/>
</filter>
</defs>
</svg>
