<svg id="Icons" height="512" viewBox="0 0 74 74" width="512" xmlns="http://www.w3.org/2000/svg"><path d="m33.44 72h-2.97a1 1 0 0 1 0-2h2.97a1 1 0 0 1 0 2z"/><path d="m68 72h-27.56a1 1 0 0 1 0-2h27.56a2 2 0 0 0 2-2v-62a2 2 0 0 0 -2-2h-62a2 2 0 0 0 -2 2v62a2 2 0 0 0 2 2h7.56a1 1 0 1 1 0 2h-7.56a4 4 0 0 1 -4-4v-62a4 4 0 0 1 4-4h62a4 4 0 0 1 4 4v62a4 4 0 0 1 -4 4z"/><path d="m23.47 72h-2.91a1 1 0 0 1 0-2h2.91a1 1 0 0 1 0 2z"/><path d="m71 20h-68a1 1 0 0 1 0-2h68a1 1 0 0 1 0 2z"/><path d="m62.389 14.487a3.487 3.487 0 1 1 3.486-3.487 3.491 3.491 0 0 1 -3.486 3.487zm0-4.974a1.487 1.487 0 1 0 1.486 1.487 1.489 1.489 0 0 0 -1.486-1.487z"/><path d="m53.083 14.487a3.487 3.487 0 1 1 3.487-3.487 3.49 3.49 0 0 1 -3.487 3.487zm0-4.974a1.487 1.487 0 1 0 1.487 1.487 1.488 1.488 0 0 0 -1.487-1.487z"/><path d="m43.778 14.487a3.487 3.487 0 1 1 3.487-3.487 3.49 3.49 0 0 1 -3.487 3.487zm0-4.974a1.487 1.487 0 1 0 1.487 1.487 1.488 1.488 0 0 0 -1.487-1.487z"/><path d="m34.875 12.5h-25.75a1 1 0 0 1 0-2h25.75a1 1 0 0 1 0 2z"/><path d="m46.561 53.387a1 1 0 0 1 -.618-1.788l8.434-6.599-8.434-6.6a1 1 0 0 1 1.233-1.575l9.44 7.386a1 1 0 0 1 0 1.576l-9.44 7.386a1 1 0 0 1 -.615.214z"/><path d="m27.439 53.387a1 1 0 0 1 -.615-.213l-9.44-7.386a1 1 0 0 1 0-1.576l9.44-7.386a1 1 0 0 1 1.233 1.574l-8.434 6.6 8.434 6.6a1 1 0 0 1 -.618 1.788z"/><path d="m33.282 59.352a1 1 0 0 1 -.964-1.269l7.438-26.7a1 1 0 1 1 1.926.537l-7.438 26.7a1 1 0 0 1 -.962.732z"/></svg>